<svg width="223" height="44" viewBox="0 0 223 44" fill="none" xmlns="http://www.w3.org/2000/svg">
<path d="M92.9733 6.55257C91.7815 6.70404 90.8727 7.34938 90.5105 8.31742C90.1154 9.36447 90.2076 10.754 90.7343 11.6496C91.0702 12.2225 91.7486 12.6834 92.5519 12.881C93.0854 13.0127 94.3958 12.9929 94.8896 12.8481C95.9499 12.532 96.6019 11.88 96.9048 10.833C96.9575 10.6552 96.9904 10.2008 96.9904 9.71349C96.9837 8.83107 96.8719 8.33058 96.5426 7.81693C96.345 7.50084 95.8578 7.05964 95.5351 6.88842C94.9489 6.59208 93.8492 6.4472 92.9733 6.55257Z" fill="white"/>
<path d="M163.507 6.55237C162.414 6.69067 161.71 7.08578 161.235 7.81016C160.88 8.35673 160.748 8.87697 160.748 9.74621C160.748 11.465 161.499 12.5054 163.013 12.8808C163.546 13.0125 164.858 12.9927 165.351 12.8479C166.51 12.4988 167.15 11.8206 167.392 10.6682C167.577 9.78573 167.472 8.73209 167.129 8.03406C166.932 7.62577 166.471 7.15163 166.056 6.92773C165.463 6.60506 164.357 6.44042 163.507 6.55237Z" fill="white"/>
<path d="M69.5695 7.60607C69.3326 7.68509 69.1217 7.8168 68.9638 7.98803C68.483 8.50825 68.5093 7.65217 68.529 20.2893L68.5489 31.6092L68.7069 31.9254C68.8781 32.2744 69.1745 32.5313 69.5498 32.6695C69.9054 32.7946 73.4483 32.7946 73.8039 32.6695C74.1792 32.5313 74.4756 32.2744 74.6468 31.9254L74.8048 31.6092L74.8377 27.9742L74.8707 24.3458L77.6036 28.073C79.105 30.1277 80.4747 31.9451 80.6393 32.1098C80.8303 32.3007 81.0938 32.4785 81.3308 32.5707C81.7128 32.7288 81.7589 32.7288 83.9583 32.7288C86.1644 32.7288 86.2039 32.7288 86.5069 32.5774C87.0864 32.2942 87.2642 31.6555 86.9283 31.0693C86.8361 30.9179 85.4598 29.1135 83.8595 27.0654C82.2594 25.0174 80.962 23.3185 80.9752 23.2856C80.9884 23.2592 82.2725 21.7907 83.8266 20.0259C85.3873 18.261 86.7241 16.6937 86.8097 16.5422C87.1193 15.9694 86.9349 15.4161 86.3291 15.1133L85.9998 14.9486H83.8925C81.8774 14.9486 81.7654 14.9552 81.3966 15.0936C81.1859 15.1725 80.9225 15.3108 80.8039 15.3964C80.6921 15.4886 79.3092 17.102 77.7353 18.9919L74.8707 22.4228L74.8377 15.5545C74.8048 8.77825 74.8048 8.68606 74.6666 8.39631C74.5941 8.23168 74.423 8.00778 74.2912 7.88924C73.8697 7.52046 73.5734 7.47437 71.6506 7.47437C70.136 7.48096 69.8857 7.49413 69.5695 7.60607Z" fill="white"/>
<path d="M101.831 7.56646C101.39 7.7245 101.14 7.92865 100.942 8.27766L100.751 8.62668V20.1509V31.675L100.896 31.9385C101.074 32.2743 101.271 32.4587 101.64 32.6233C101.917 32.7484 102.068 32.7616 103.872 32.7616C105.137 32.7616 105.894 32.7352 106.059 32.6891C106.388 32.5838 106.75 32.2874 106.928 31.9517L107.073 31.675L107.093 20.2496C107.112 7.59938 107.139 8.45547 106.684 7.98792C106.23 7.52036 106.177 7.50719 104.011 7.49402C102.536 7.48085 102.009 7.49402 101.831 7.56646Z" fill="white"/>
<path d="M112.037 7.57306C111.866 7.63233 111.616 7.78379 111.464 7.92867C110.951 8.42914 110.983 7.44794 111.003 20.2496L111.023 31.6751L111.168 31.9517C111.346 32.2875 111.708 32.5838 112.037 32.6891C112.202 32.7352 112.966 32.7616 114.223 32.7616C116.113 32.7616 116.166 32.7551 116.489 32.6036C116.89 32.4192 117.134 32.1492 117.272 31.7211C117.371 31.438 117.378 30.3186 117.365 20.0192L117.345 8.6267L117.2 8.3633C117.035 8.05378 116.779 7.80355 116.456 7.63233C116.245 7.52038 116.034 7.50721 114.283 7.49404C112.742 7.48087 112.281 7.50063 112.037 7.57306Z" fill="white"/>
<path d="M140.308 7.56653C139.88 7.70482 139.577 7.97481 139.38 8.38967L139.208 8.75846L139.188 18.0108C139.176 24.0889 139.195 27.5133 139.234 27.9874C139.512 30.8914 140.973 32.3006 144.345 32.9C145.122 33.0382 145.398 33.058 147.275 33.058C148.645 33.058 149.554 33.0317 149.943 32.9724C151.517 32.7419 152.708 32.393 153.756 31.8529C155.901 30.7466 157.067 29.0344 157.555 26.2751C157.752 25.1492 157.772 22.7917 157.595 21.6656C157.127 18.6693 155.935 16.9176 153.552 15.7454C151.93 14.942 150.133 14.6193 147.262 14.6193H145.497V11.7547C145.497 9.89771 145.47 8.79797 145.425 8.63334C145.312 8.22506 145.055 7.90237 144.688 7.69824L144.345 7.50726L142.468 7.49409C141.032 7.48091 140.525 7.50067 140.308 7.56653ZM149.146 19.7229C150.351 20.0324 150.91 20.6251 151.239 21.9355C151.364 22.4426 151.385 22.6995 151.385 23.8386C151.385 25.3071 151.299 25.834 150.97 26.5518C150.488 27.5659 149.66 28.0203 148.065 28.1256C147.294 28.1784 146.492 28.073 146.135 27.8689C145.813 27.6911 145.643 27.3815 145.563 26.8217C145.53 26.5913 145.497 24.9055 145.497 23.0681V19.7294L145.813 19.6833C147.006 19.5055 148.355 19.5187 149.146 19.7229Z" fill="white"/>
<path d="M171.975 10.9315C171.344 11.1093 171.047 11.4122 170.883 12.0707C170.79 12.4263 170.785 13.3482 170.804 19.8676C170.83 28.0596 170.81 27.6711 171.272 29.0211C172.2 31.7342 174.485 33.1171 178.061 33.1171C179.246 33.1171 179.944 33.0447 181.202 32.7944C182.13 32.6036 182.459 32.4718 182.783 32.1294C183.184 31.7145 183.263 31.3918 183.263 30.0946C183.263 28.9947 183.263 28.9685 183.085 28.6655C182.953 28.4483 182.815 28.3165 182.591 28.2045C182.301 28.0663 182.216 28.0531 181.485 28.0795C179.673 28.1453 178.871 28.1255 178.495 27.9938C178.087 27.8556 177.679 27.5132 177.501 27.1575C177.271 26.7163 177.237 26.1565 177.237 22.8969V19.7228H179.443C180.774 19.7228 181.775 19.6964 181.979 19.6503C182.459 19.545 182.894 19.2288 183.098 18.8338C183.25 18.5308 183.263 18.4321 183.282 17.4706C183.316 16.1799 183.23 15.8375 182.802 15.4094C182.334 14.9353 182.19 14.9156 179.536 14.9156H177.244L177.225 13.447C177.204 12.097 177.192 11.9653 177.06 11.7217C176.882 11.3858 176.618 11.1356 176.283 10.9841C176.052 10.8788 175.788 10.8656 174.175 10.8524C172.719 10.8393 172.259 10.859 171.975 10.9315Z" fill="white"/>
<path d="M55.9123 14.3098C52.8634 14.6325 50.9733 15.416 49.8933 16.8188C49.1887 17.7275 48.9385 18.5046 48.9385 19.769C48.9385 20.7699 49.0373 21.2243 49.439 21.9881C50.0711 23.2131 51.3882 24.1679 53.3111 24.7934C53.6536 24.9055 54.885 25.2412 56.044 25.531C58.7571 26.2159 59.1785 26.4201 59.2839 27.0653C59.3563 27.533 59.0204 27.8886 58.2895 28.119C57.8549 28.2507 57.7035 28.2639 56.2086 28.2574C54.5162 28.2507 53.7786 28.1849 51.757 27.8622C50.4926 27.658 50.1435 27.6911 49.7024 28.0729C49.3007 28.4153 49.1953 28.7577 49.1953 29.7127C49.1953 31.4315 49.6168 31.8464 51.7965 32.2743C53.6601 32.6431 54.5755 32.7352 56.4392 32.7352C58.1776 32.7419 58.7571 32.6892 60.1268 32.3995C62.7543 31.8529 64.4336 30.4633 64.967 28.3956C65.158 27.6647 65.158 26.4266 64.9736 25.7088C64.6048 24.2864 63.5445 23.0748 61.9707 22.2911C61.1277 21.8631 60.2783 21.5931 57.9867 21.0201C55.3262 20.355 55.3263 20.355 55.043 20.0917C54.8586 19.9139 54.8257 19.8414 54.8257 19.578C54.8257 19.1499 55.043 18.9392 55.6884 18.735C56.1296 18.5968 56.2943 18.5836 57.4598 18.5901C58.869 18.5901 59.5802 18.6561 61.411 18.9457C62.6885 19.1434 62.9453 19.1434 63.3667 18.926C63.6302 18.7878 63.8804 18.4651 63.9793 18.116C64.0319 17.9514 64.0516 17.5432 64.0385 17.0295C64.0122 16.259 63.999 16.1932 63.808 15.8508C63.5774 15.4359 63.156 15.1132 62.649 14.9617C62.1617 14.8168 60.7656 14.5534 59.8963 14.4348C59.172 14.3362 56.4654 14.2505 55.9123 14.3098Z" fill="white"/>
<path d="M127.355 14.6259C124.306 14.9487 122.416 15.7323 121.336 17.1349C120.631 18.0438 120.381 18.8208 120.381 20.0851C120.381 21.0862 120.48 21.5405 120.881 22.3044C121.513 23.5292 122.831 24.484 124.754 25.1097C125.096 25.2216 126.327 25.5575 127.486 25.8472C130.199 26.532 130.621 26.7362 130.726 27.3816C130.799 27.8491 130.463 28.2047 129.732 28.4353C129.297 28.567 129.146 28.5801 127.651 28.5735C125.959 28.567 125.221 28.5011 123.199 28.1784C121.935 27.9743 121.586 28.0072 121.145 28.3892C120.743 28.7316 120.638 29.074 120.638 30.0289C120.638 31.7476 121.059 32.1625 123.239 32.5906C125.102 32.9594 126.018 33.0515 127.881 33.0515C129.62 33.0581 130.2 33.0055 131.569 32.7156C134.197 32.169 135.876 30.7796 136.409 28.7118C136.6 27.9809 136.6 26.7429 136.416 26.025C136.047 24.6026 134.987 23.391 133.413 22.6073C132.57 22.1792 131.721 21.9093 129.429 21.3363C126.768 20.6713 126.768 20.6713 126.485 20.4079C126.301 20.23 126.268 20.1576 126.268 19.8941C126.268 19.4661 126.485 19.2554 127.131 19.0512C127.572 18.913 127.737 18.8998 128.902 18.9064C130.311 18.9064 131.023 18.9722 132.853 19.262C134.131 19.4596 134.388 19.4596 134.809 19.2422C135.073 19.104 135.323 18.7812 135.421 18.4323C135.474 18.2677 135.494 17.8593 135.481 17.3458C135.455 16.5753 135.441 16.5093 135.25 16.1669C135.02 15.752 134.598 15.4293 134.091 15.2779C133.604 15.133 132.208 14.8697 131.339 14.7511C130.614 14.6523 127.908 14.5667 127.355 14.6259Z" fill="white"/>
<path d="M193.425 14.6588C190.81 14.8762 188.894 15.6664 187.479 17.1152C186.293 18.3334 185.588 19.8612 185.265 21.9289C185.154 22.627 185.154 24.9977 185.259 25.7353C185.476 27.2038 185.977 28.6064 186.649 29.5942C187.735 31.1878 189.624 32.3732 191.811 32.8276C192.785 33.0317 193.457 33.0909 194.709 33.0909C196.447 33.0909 198.416 32.8407 200.18 32.3929C200.977 32.1887 201.248 32.0571 201.557 31.7147C201.939 31.2867 202.011 31.0561 202.051 30.121C202.097 28.8632 201.906 28.376 201.248 28.0796C200.899 27.9216 200.451 27.9216 199.667 28.0862C198.798 28.264 197.356 28.4615 196.566 28.5142C195.308 28.5999 193.813 28.3628 193.089 27.9743C192.693 27.7569 192.187 27.2169 191.962 26.7823L191.791 26.4399L191.935 26.4135C192.022 26.3938 193.747 26.216 195.775 26.0118C197.804 25.8077 199.753 25.5837 200.108 25.5114C202.419 25.0505 203.244 24.0626 203.249 21.7511C203.249 18.7747 202.058 16.6871 199.707 15.561C198.093 14.7972 195.789 14.4613 193.425 14.6588ZM196.019 18.9326C196.329 19.0249 196.546 19.15 196.782 19.3607C197.231 19.7624 197.401 20.1839 197.442 20.9412C197.474 21.6853 197.375 21.85 196.842 21.9618C196.566 22.0211 191.87 22.4887 191.568 22.4887C191.455 22.4887 191.489 22.1134 191.666 21.2837C191.805 20.6119 192.081 19.9995 192.417 19.611C192.713 19.2619 193.451 18.8866 193.997 18.8009C194.57 18.7154 195.505 18.7747 196.019 18.9326Z" fill="white"/>
<path d="M91.6298 14.975C91.3202 15.0737 91.0568 15.2384 90.8527 15.4688C90.4312 15.9562 90.4444 15.6203 90.4444 23.8716C90.4444 32.011 90.4312 31.7147 90.8067 32.2151C90.9054 32.3403 91.1424 32.5181 91.3269 32.6037C91.6561 32.7551 91.6957 32.7617 93.5988 32.7617C94.9356 32.7617 95.6139 32.7353 95.8048 32.6827C96.1604 32.5773 96.6477 32.09 96.7531 31.7344C96.8123 31.5237 96.8322 29.66 96.8322 23.8584C96.8322 15.3568 96.8584 15.864 96.3645 15.37C95.9497 14.9551 95.7061 14.9157 93.612 14.9222C92.6109 14.9222 91.7219 14.9486 91.6298 14.975Z" fill="white"/>
<path d="M162.092 14.9751C161.782 15.0738 161.518 15.2385 161.314 15.4689C160.892 15.9563 160.906 15.627 160.906 23.8124C160.906 28.8502 160.926 31.346 160.978 31.5699C161.077 32.0374 161.367 32.4061 161.782 32.6038C162.118 32.7552 162.151 32.7618 164.074 32.7618C166.32 32.7618 166.457 32.7354 166.893 32.2679C167.037 32.1098 167.195 31.853 167.241 31.6949C167.306 31.471 167.327 29.8972 167.327 23.8059V16.1999L167.143 15.818C167.037 15.6138 166.853 15.3636 166.735 15.2714C166.313 14.9487 166.043 14.9158 164.074 14.9223C163.073 14.9223 162.183 14.9487 162.092 14.9751Z" fill="white"/>
<path d="M205.923 4.979V6.22266H204.403V10.5488H203.026V6.22266H201.508V4.979H205.923ZM211.861 4.979V10.5488H210.573V7.20871L209.622 9.48283H208.503L207.571 7.20871V10.5488H206.283V4.979H207.961L209.089 7.78612L210.244 4.979H211.861Z" fill="white"/>
<path d="M39.8574 23.2749C39.6292 23.0061 39.335 22.8015 39.0037 22.6813C38.6724 22.561 38.3154 22.5294 37.9681 22.5893C37.6152 22.655 37.2574 22.6887 36.8986 22.6902C35.9176 22.6949 34.9496 22.4659 34.0748 22.022C33.2 21.5781 32.4435 20.9323 31.8682 20.1378C31.2927 19.3433 30.9149 18.4231 30.766 17.4535C30.617 16.4839 30.7013 15.4927 31.0118 14.5622C31.1359 14.2018 31.1538 13.8133 31.0631 13.4431C30.9726 13.0729 30.7773 12.7365 30.501 12.4741C30.2543 12.2449 29.9536 12.0819 29.6268 12.0004C29.3001 11.919 28.9579 11.9217 28.6326 12.0083C28.2904 12.0956 27.9416 12.1543 27.5898 12.184C26.6949 12.2561 25.7951 12.1324 24.9528 11.8217C24.1106 11.5109 23.3461 11.0205 22.7124 10.3845C22.0788 9.74848 21.5913 8.98214 21.2837 8.13871C20.9762 7.2953 20.856 6.39502 20.9313 5.50044C20.9574 5.23538 20.9233 4.96784 20.8311 4.71792C20.7391 4.46799 20.5915 4.24219 20.3996 4.05747L20.3675 4.02675C20.1692 3.84143 19.9303 3.705 19.6699 3.62833C19.4095 3.55167 19.1348 3.53688 18.8678 3.58516C18.6057 3.64323 18.3371 3.68261 18.0727 3.74123C14.7965 4.46818 11.7795 6.07216 9.34456 8.38156C6.90961 10.691 5.14832 13.6189 4.24911 16.8521C3.3499 20.0853 3.34661 23.5022 4.23957 26.7371C5.13255 29.972 6.88818 32.9034 9.31866 35.2175C11.7491 37.5316 14.763 39.1414 18.0379 39.8747C21.3128 40.6079 24.7253 40.4371 27.9105 39.3804C31.0957 38.3238 33.9338 36.421 36.121 33.8758C38.3083 31.3306 39.7624 28.2385 40.3278 24.9306C40.3754 24.6371 40.358 24.3365 40.2766 24.0505C40.1954 23.7643 40.0522 23.4996 39.8574 23.2749ZM13.991 28.505C13.51 28.6116 13.0082 28.5733 12.549 28.3948C12.0899 28.2163 11.6939 27.9057 11.4113 27.5022C11.1286 27.0987 10.9719 26.6205 10.961 26.1281C10.9501 25.6354 11.0854 25.1508 11.3499 24.7352C11.6144 24.3196 11.9961 23.9918 12.4469 23.793C12.8977 23.5944 13.3973 23.5337 13.8824 23.6189C14.3677 23.7042 14.8167 23.9312 15.1729 24.2716C15.529 24.6119 15.7764 25.0503 15.8834 25.5311C15.9542 25.8505 15.9614 26.1805 15.9045 26.5025C15.8476 26.8247 15.7278 27.1324 15.5519 27.4081C15.3761 27.6839 15.1476 27.9222 14.8796 28.1096C14.6116 28.297 14.3093 28.4298 13.9899 28.5002L13.991 28.505ZM11.6212 17.1791C11.5146 16.6979 11.553 16.196 11.7317 15.7367C11.9104 15.2773 12.2213 14.8813 12.625 14.5988C13.0288 14.3162 13.5073 14.1596 14 14.1491C14.4928 14.1385 14.9776 14.2744 15.3932 14.5394C15.8086 14.8044 16.1363 15.1866 16.3345 15.6379C16.5327 16.0891 16.5925 16.5891 16.5066 17.0743C16.4207 17.5596 16.1928 18.0085 15.8516 18.3642C15.5106 18.72 15.0716 18.9665 14.5903 19.0726C14.2711 19.1434 13.9409 19.1507 13.6188 19.0937C13.2968 19.0368 12.9891 18.917 12.7133 18.7412C12.4376 18.5653 12.1992 18.3369 12.0118 18.0688C11.8244 17.8008 11.6917 17.4985 11.6212 17.1791ZM21.5954 33.8367C21.1143 33.9433 20.6124 33.9048 20.1531 33.7263C19.6939 33.5477 19.2979 33.2369 19.0153 32.8333C18.7327 32.4298 18.5761 31.9513 18.5653 31.4587C18.5546 30.9661 18.6902 30.4814 18.9549 30.0658C19.2196 29.6503 19.6017 29.3224 20.0527 29.1241C20.5037 28.9256 21.0035 28.8654 21.4888 28.9509C21.974 29.0365 22.4229 29.264 22.7789 29.6047C23.1348 29.9455 23.3817 30.3841 23.4883 30.8652C23.5595 31.1846 23.5669 31.5149 23.5103 31.8372C23.4536 32.1595 23.334 32.4675 23.1581 32.7435C22.9823 33.0195 22.7538 33.2581 22.4855 33.4457C22.2173 33.6333 21.9149 33.7661 21.5954 33.8367ZM23.005 23.9422C22.5239 24.0494 22.022 24.0115 21.5625 23.8333C21.103 23.655 20.7067 23.3444 20.4237 22.9409C20.1407 22.5374 19.9837 22.0591 19.9728 21.5663C19.9617 21.0736 20.097 20.5888 20.3615 20.1729C20.6262 19.7572 21.0082 19.4292 21.4592 19.2305C21.9103 19.0318 22.4101 18.9715 22.8954 19.057C23.3808 19.1423 23.8299 19.3698 24.1859 19.7106C24.542 20.0513 24.789 20.4901 24.8956 20.9713C24.9678 21.2906 24.9763 21.621 24.9206 21.9436C24.865 22.2662 24.7463 22.5747 24.5714 22.8514C24.3964 23.1281 24.1686 23.3677 23.9011 23.5563C23.6335 23.745 23.3313 23.8789 23.012 23.9508L23.005 23.9422ZM31.0069 31.0667C30.5258 31.1739 30.0238 31.136 29.5644 30.9578C29.1049 30.7796 28.7085 30.4691 28.4256 30.0656C28.1426 29.6621 27.9856 29.1836 27.9747 28.6909C27.9636 28.1983 28.0989 27.7133 28.3634 27.2975C28.628 26.8817 29.01 26.5538 29.4611 26.3551C29.9121 26.1565 30.4119 26.096 30.8973 26.1815C31.3826 26.267 31.8318 26.4945 32.1878 26.8352C32.5439 27.176 32.7909 27.6146 32.8975 28.0958C32.9697 28.4152 32.9782 28.7456 32.9225 29.0681C32.8668 29.3909 32.7482 29.6993 32.5731 29.976C32.3983 30.2527 32.1705 30.4922 31.9029 30.6809C31.6354 30.8695 31.3332 31.0036 31.0139 31.0753L31.0069 31.0667Z" fill="url(#paint0_linear_189_1052)"/>
<path opacity="0.37" d="M39.8571 23.275C39.6289 23.0057 39.3342 22.8009 39.0023 22.6808C38.6705 22.5606 38.313 22.5292 37.9654 22.59C36.9095 22.781 35.822 22.6937 34.8101 22.3367C33.7983 21.9796 32.8969 21.3651 32.1948 20.5537C31.4926 19.7422 31.014 18.7619 30.8061 17.7092C30.5981 16.6566 30.668 15.5678 31.0088 14.5504C31.1265 14.2167 31.1522 13.8574 31.0829 13.5104C31.0138 13.1634 30.8525 12.8414 30.6158 12.5783C30.3792 12.3152 30.076 12.1207 29.7383 12.0153C29.4006 11.9098 29.0406 11.8974 28.6963 11.9791L28.6243 11.9951C27.0844 12.3979 25.4484 12.1885 24.0595 11.4107C22.6708 10.633 21.6375 9.34746 21.1764 7.82403C21.0174 7.29957 20.9276 6.75665 20.909 6.20898C20.6686 6.26227 20.4284 6.31556 20.1917 6.38565C15.9666 7.52672 12.346 10.2568 10.0868 14.0052C7.82768 17.7536 7.10489 22.2303 8.06952 26.4991C9.03416 30.7681 11.6115 34.4989 15.2629 36.9117C18.9143 39.3246 23.3569 40.2326 27.6623 39.4462C30.9037 38.4207 33.8001 36.5226 36.0341 33.9601C38.2682 31.3974 39.7535 28.2691 40.3272 24.9183C40.3736 24.6267 40.3554 24.3284 40.2742 24.0445C40.193 23.7607 40.0506 23.4981 39.8571 23.275ZM13.9906 28.5052C13.5097 28.6118 13.0079 28.5735 12.5487 28.395C12.0896 28.2165 11.6937 27.9058 11.411 27.5023C11.1283 27.0988 10.9716 26.6207 10.9607 26.1282C10.9498 25.6356 11.0851 25.1509 11.3496 24.7353C11.6141 24.3198 11.9958 23.9919 12.4466 23.7932C12.8974 23.5945 13.397 23.5339 13.8822 23.6191C14.3675 23.7043 14.8165 23.9314 15.1727 24.2717C15.5288 24.6121 15.776 25.0504 15.8832 25.5312C15.954 25.8506 15.961 26.1807 15.9043 26.5027C15.8474 26.8249 15.7276 27.1326 15.5517 27.4082C15.3759 27.684 15.1474 27.9224 14.8794 28.1097C14.6112 28.2971 14.3089 28.4299 13.9895 28.5003L13.9906 28.5052ZM11.6209 17.1793C11.5143 16.6981 11.5527 16.1961 11.7314 15.7369C11.9101 15.2774 12.221 14.8814 12.6247 14.599C13.0285 14.3164 13.507 14.1598 13.9998 14.1492C14.4925 14.1387 14.9772 14.2746 15.3928 14.5396C15.8084 14.8045 16.1359 15.1868 16.3341 15.638C16.5324 16.0893 16.5923 16.5892 16.5064 17.0745C16.4203 17.5597 16.1924 18.0086 15.8514 18.3644C15.5102 18.7201 15.0713 18.9666 14.59 19.0728C14.2707 19.1436 13.9407 19.1508 13.6185 19.0939C13.2965 19.037 12.9888 18.9172 12.713 18.7413C12.4373 18.5655 12.1989 18.337 12.0115 18.069C11.8241 17.801 11.6914 17.4987 11.6209 17.1793ZM21.595 33.8368C21.1139 33.9434 20.612 33.905 20.1528 33.7265C19.6936 33.5478 19.2977 33.2371 19.015 32.8334C18.7324 32.4299 18.5758 31.9515 18.5651 31.4589C18.5543 30.9663 18.6899 30.4816 18.9546 30.066C19.2194 29.6504 19.6014 29.3226 20.0524 29.1242C20.5035 28.9257 21.0031 28.8655 21.4884 28.951C21.9736 29.0366 22.4227 29.2641 22.7785 29.6049C23.1344 29.9457 23.3814 30.3843 23.4881 30.8654C23.5592 31.1847 23.5667 31.5151 23.51 31.8374C23.4533 32.1597 23.3336 32.4677 23.1578 32.7436C22.9819 33.0197 22.7534 33.2583 22.4853 33.4458C22.2171 33.6335 21.9145 33.7663 21.595 33.8368ZM23.0048 23.9424C22.5237 24.0495 22.0217 24.0116 21.5622 23.8334C21.1027 23.6552 20.7064 23.3445 20.4234 22.9411C20.1405 22.5376 19.9835 22.0592 19.9724 21.5665C19.9614 21.0738 20.0968 20.5889 20.3613 20.1731C20.6259 19.7574 21.0079 19.4294 21.459 19.2306C21.9099 19.032 22.4098 18.9716 22.8951 19.0571C23.3805 19.1425 23.8297 19.37 24.1857 19.7107C24.5417 20.0515 24.7887 20.4902 24.8954 20.9715C24.9674 21.2907 24.9761 21.6212 24.9204 21.9438C24.8647 22.2663 24.7459 22.5749 24.571 22.8515C24.3961 23.1283 24.1684 23.3679 23.9008 23.5565C23.6331 23.7451 23.3311 23.8791 23.0117 23.951L23.0048 23.9424ZM31.0065 31.0669C30.5256 31.174 30.0236 31.1362 29.564 30.9579C29.1046 30.7797 28.7083 30.4692 28.4253 30.0657C28.1422 29.6622 27.9854 29.1838 27.9743 28.691C27.9632 28.1984 28.0985 27.7135 28.3632 27.2976C28.6278 26.8819 29.0098 26.5539 29.4607 26.3553C29.9118 26.1567 30.4116 26.0961 30.897 26.1816C31.3824 26.2671 31.8314 26.4946 32.1875 26.8354C32.5436 27.1762 32.7906 27.6148 32.8973 28.096C32.9693 28.4154 32.9778 28.7457 32.9221 29.0683C32.8665 29.391 32.7478 29.6994 32.5729 29.9762C32.3979 30.2528 32.1703 30.4924 31.9026 30.681C31.635 30.8697 31.333 31.0037 31.0135 31.0755L31.0065 31.0669Z" fill="url(#paint1_linear_189_1052)"/>
<path opacity="0.34" d="M39.8573 23.275C39.6291 23.0058 39.3344 22.8009 39.0027 22.6807C38.6708 22.5605 38.3133 22.5293 37.9656 22.5899C36.9097 22.781 35.8223 22.6937 34.8103 22.3366C33.7985 21.9796 32.8971 21.365 32.195 20.5536C31.4928 19.7421 31.0143 18.7618 30.8063 17.7091C30.5984 16.6564 30.6682 15.5678 31.009 14.5503C31.1332 14.1899 31.151 13.8015 31.0605 13.4312C30.9698 13.061 30.7747 12.7246 30.4982 12.4622C30.1517 12.1381 29.6999 11.95 29.2258 11.9324C29.3112 12.1807 29.3899 12.4331 29.4623 12.6919C29.5348 12.9507 29.6078 13.2346 29.6697 13.5133C29.843 14.2924 29.9537 15.0841 30.0003 15.8809C30.0274 16.3439 30.0322 16.8093 30.0157 17.2694C29.9229 19.7618 29.2057 22.191 27.9301 24.3344C26.6544 26.4776 24.8611 28.2663 22.7146 29.5365C23.0076 29.7976 23.2349 30.1243 23.3775 30.4901C23.5202 30.8558 23.5744 31.25 23.5356 31.6406C23.4968 32.0313 23.3662 32.4072 23.1544 32.7377C22.9425 33.0682 22.6555 33.3438 22.3168 33.5423C21.9782 33.7406 21.5973 33.8561 21.2054 33.8793C20.8136 33.9024 20.4218 33.8325 20.0621 33.6753C19.7025 33.518 19.3851 33.278 19.1359 32.9747C18.8866 32.6715 18.7127 32.3135 18.6283 31.9301C18.575 31.6908 18.5571 31.445 18.575 31.2006L18.3683 31.2464C16.0946 31.7519 13.734 31.7157 11.4769 31.1408C9.21985 30.5657 7.12956 29.4682 5.37479 27.9367C4.98928 27.6024 4.62196 27.2479 4.27441 26.8744C4.27974 26.8984 4.28453 26.9201 4.28986 26.9441C5.45436 30.9693 7.95015 34.4803 11.3691 36.903C14.788 39.3255 18.9277 40.5164 23.1115 40.2808C27.2951 40.0453 31.2749 38.3972 34.4003 35.6061C37.5257 32.815 39.6116 29.046 40.3169 24.9155C40.3642 24.6252 40.3475 24.3278 40.2681 24.0445C40.1887 23.7613 40.0485 23.4986 39.8573 23.275ZM31.0138 31.0755C30.5328 31.1827 30.0307 31.1446 29.5713 30.9664C29.1117 30.7882 28.7154 30.4777 28.4324 30.0742C28.1495 29.6707 27.9925 29.1924 27.9814 28.6997C27.9705 28.2069 28.1058 27.7219 28.3704 27.3062C28.6349 26.8904 29.0169 26.5624 29.468 26.3638C29.919 26.1652 30.4188 26.1048 30.9042 26.1901C31.3896 26.2756 31.8387 26.5031 32.1948 26.8439C32.5508 27.1846 32.7977 27.6234 32.9044 28.1045C33.0474 28.7492 32.9285 29.4242 32.574 29.9814C32.2195 30.5384 31.6583 30.9319 31.0138 31.0755Z" fill="url(#paint2_linear_189_1052)"/>
<path d="M39.8568 23.275C39.6286 23.0057 39.334 22.8008 39.0021 22.6808C38.6702 22.5606 38.3127 22.5292 37.9651 22.59C37.6397 22.6507 37.31 22.6849 36.9792 22.6926L36.8884 22.6924C35.9078 22.6962 34.9403 22.4665 34.0662 22.0222C33.1919 21.578 32.4359 20.9322 31.8608 20.1379C31.2856 19.3437 30.9076 18.4242 30.7583 17.4549C30.6088 16.4858 30.6922 15.495 31.0016 14.5645C31.1193 14.2308 31.1448 13.8715 31.0757 13.5245C31.0066 13.1775 30.8451 12.8555 30.6086 12.5924C30.372 12.3293 30.0688 12.1348 29.7311 12.0294C29.3933 11.924 29.0334 11.9115 28.6891 11.9933L28.617 12.0092C27.0771 12.412 25.4411 12.2026 24.0524 11.4248C22.6636 10.6471 21.6301 9.36157 21.169 7.83816C20.9386 7.08252 20.8545 6.28987 20.9211 5.5027C20.9478 5.23759 20.9138 4.9699 20.8218 4.71989C20.7296 4.46988 20.5818 4.24412 20.3894 4.05974L20.3573 4.02901C20.1594 3.84319 19.9205 3.70644 19.66 3.62974C19.3995 3.55304 19.1246 3.53855 18.8574 3.58741C18.5955 3.64548 18.3269 3.68488 18.0625 3.74348C15.593 4.29221 13.2621 5.34133 11.2138 6.82606C9.1656 8.31079 7.44344 10.1996 6.15368 12.3759C4.86393 14.5523 4.03398 16.9698 3.71505 19.4795C3.39614 21.989 3.59503 24.5374 4.29945 26.9671C4.77795 28.6365 5.4927 30.2289 6.422 31.6959C8.42071 34.8634 11.3331 37.35 14.7746 38.8275C18.2162 40.3051 22.0249 40.7041 25.6978 39.9718C29.3709 39.2395 32.7353 37.4102 35.347 34.7258C37.9587 32.0413 39.6948 28.6279 40.3258 24.936C40.375 24.6418 40.3584 24.3401 40.2772 24.053C40.1962 23.7658 40.0527 23.5001 39.8568 23.275ZM23.3922 37.1676C19.1303 38.1201 14.6666 37.4501 10.8722 35.2885C10.0148 34.8008 9.24609 34.1714 8.59865 33.4273C6.58684 31.0974 5.21441 28.2852 4.61571 25.2657C4.017 22.2462 4.21253 19.123 5.18314 16.2018C6.15376 13.2806 7.86621 10.6614 10.1529 8.60065C12.4396 6.53988 15.2221 5.10814 18.2283 4.44555C18.4806 4.38961 18.7354 4.33313 18.9915 4.294C19.1481 4.26615 19.3091 4.27474 19.4619 4.31913C19.6149 4.36353 19.7553 4.44251 19.8728 4.54998L19.9048 4.58071C20.0181 4.69063 20.1047 4.82498 20.1583 4.97351C20.2117 5.12204 20.2305 5.28081 20.2132 5.43771C20.1262 6.43725 20.2585 7.44373 20.6006 8.38685C20.9429 9.32999 21.4869 10.187 22.1946 10.8982C22.9024 11.6093 23.757 12.1573 24.6985 12.504C25.64 12.8507 26.6457 12.9877 27.6456 12.9054C27.9564 12.8776 28.2651 12.8302 28.5699 12.7635L28.8102 12.7102L28.8583 12.6996C29.0778 12.6462 29.3076 12.6533 29.5233 12.72C29.7392 12.7867 29.9328 12.9107 30.0838 13.0786C30.2348 13.2466 30.3375 13.4523 30.3811 13.6739C30.4246 13.8956 30.4072 14.1248 30.3309 14.3374C29.7575 16.0547 29.8827 17.9286 30.6796 19.5543C31.4764 21.1799 32.8808 22.4269 34.5894 23.0257C34.8961 23.1331 35.1781 23.3007 35.4191 23.5186C35.66 23.7365 35.8552 24.0002 35.993 24.2945C36.1307 24.5886 36.2084 24.9074 36.2215 25.2321C36.2345 25.5566 36.1828 25.8806 36.0691 26.185C35.0365 28.9257 33.3365 31.3656 31.1229 33.2833C28.9093 35.2011 26.2521 36.5362 23.3922 37.1676Z" fill="url(#paint3_linear_189_1052)"/>
<path opacity="0.76" d="M19.1498 15.7922C20.5083 13.8445 20.9573 11.5361 20.5857 9.64409C20.4653 9.05244 20.2175 8.49411 19.8595 8.00793C19.5014 7.52174 19.0419 7.11936 18.5126 6.82875C17.9834 6.53814 17.3972 6.36628 16.7948 6.32511C16.1924 6.28394 15.5883 6.37445 15.0245 6.59036C12.9854 7.36484 11.1364 8.56798 9.60224 10.1185C8.06811 11.669 6.88465 13.5307 6.13184 15.5779C5.37902 17.6251 5.07439 19.81 5.23853 21.985C5.40266 24.16 6.03172 26.2743 7.08324 28.1854C7.54592 29.018 8.25599 29.6862 9.11516 30.0975C9.97433 30.5087 10.9401 30.6427 11.8788 30.481L11.9268 30.4703C16.1379 29.7081 17.4824 26.765 16.9841 23.6529C16.445 20.2548 17.6193 18.0101 19.1498 15.7922ZM13.9889 28.5002C13.5078 28.6069 13.0058 28.5684 12.5465 28.3897C12.0872 28.211 11.6912 27.9001 11.4086 27.4963C11.126 27.0926 10.9695 26.6141 10.959 26.1214C10.9484 25.6286 11.0842 25.1438 11.3492 24.7282C11.6142 24.3128 11.9965 23.9852 12.4478 23.787C12.899 23.5888 13.3989 23.5289 13.8841 23.6148C14.3694 23.7007 14.8183 23.9286 15.174 24.2698C15.5298 24.6109 15.7763 25.0498 15.8825 25.5311C15.9533 25.8504 15.9605 26.1805 15.9036 26.5025C15.8467 26.8247 15.7269 27.1324 15.551 27.4081C15.3752 27.6839 15.1467 27.9222 14.8787 28.1096C14.6106 28.297 14.3083 28.4296 13.9889 28.5002ZM11.6192 17.1743C11.5136 16.6932 11.5529 16.1914 11.7323 15.7327C11.9117 15.2738 12.2231 14.8785 12.6271 14.5966C13.0312 14.3148 13.5097 14.1589 14.0023 14.1491C14.4947 14.1391 14.9792 14.2754 15.3943 14.5406C15.8093 14.806 16.1365 15.1884 16.3343 15.6395C16.5321 16.0908 16.5916 16.5905 16.5055 17.0754C16.4194 17.5605 16.1913 18.0091 15.8503 18.3646C15.5092 18.7201 15.0705 18.9665 14.5894 19.0726C14.2702 19.1434 13.9399 19.1506 13.6179 19.0937C13.2959 19.0368 12.9881 18.917 12.7124 18.7412C12.4367 18.5653 12.1983 18.3369 12.0109 18.0688C11.8235 17.8008 11.6908 17.4985 11.6203 17.1791L11.6192 17.1743Z" fill="#F4A524"/>
<path d="M16.3785 10.9335C16.7915 10.6759 17.006 10.2744 16.8578 10.0368C16.7096 9.79914 16.2546 9.81538 15.8416 10.073C15.4287 10.3307 15.2141 10.7322 15.3624 10.9698C15.5106 11.2074 15.9655 11.1912 16.3785 10.9335Z" fill="#F3AF48"/>
<path d="M18.0192 9.6774C18.296 9.50469 18.4399 9.23562 18.3407 9.07643C18.2413 8.91725 17.9363 8.92822 17.6596 9.10094C17.3827 9.27367 17.2387 9.54273 17.3381 9.70191C17.4373 9.8611 17.7423 9.85012 18.0192 9.6774Z" fill="#F3AF48"/>
<path opacity="0.51" d="M11.6704 11.8958L10.0629 10.9233C7.59584 13.7392 6.11725 17.2846 5.85254 21.0189C5.58783 24.7532 6.55153 28.4717 8.59672 31.6073C8.43407 31.1392 8.28799 30.6621 8.15847 30.1764C7.32151 27.0623 7.20274 23.7988 7.81111 20.632C8.41946 17.4653 9.73908 14.4782 11.6704 11.8958Z" fill="#F6A438"/>
<path opacity="0.51" d="M15.2892 8.11291C16.5843 7.05472 18.0005 6.15416 19.508 5.43018C19.1812 5.50264 18.8519 5.57564 18.5227 5.64863C17.0324 6.04674 15.6024 6.64363 14.2715 7.42322L15.2892 8.11291Z" fill="#F6A438"/>
<path opacity="0.51" d="M12.7732 10.5367C13.3216 9.91179 13.9058 9.3192 14.5231 8.76194L13.3119 8.04199C12.6057 8.5217 11.9364 9.05359 11.3096 9.63321L12.7732 10.5367Z" fill="#F6A438"/>
<defs>
<linearGradient id="paint0_linear_189_1052" x1="24.5937" y1="10.135" x2="18.1345" y2="40.121" gradientUnits="userSpaceOnUse">
<stop stop-color="#F69200"/>
<stop offset="1" stop-color="#F06A00"/>
</linearGradient>
<linearGradient id="paint1_linear_189_1052" x1="20.5146" y1="10.0939" x2="26.2787" y2="33.9785" gradientUnits="userSpaceOnUse">
<stop stop-color="#F69200"/>
<stop offset="1" stop-color="#FFE000"/>
</linearGradient>
<linearGradient id="paint2_linear_189_1052" x1="21.9575" y1="29.2606" x2="20.576" y2="42.5351" gradientUnits="userSpaceOnUse">
<stop stop-color="#E86D00"/>
<stop offset="1" stop-color="#F6A500"/>
</linearGradient>
<linearGradient id="paint3_linear_189_1052" x1="29.1829" y1="40.0848" x2="15.5274" y2="11.7466" gradientUnits="userSpaceOnUse">
<stop stop-color="#E35900" stop-opacity="0.3"/>
<stop offset="0.5" stop-color="#EF8500"/>
<stop offset="1" stop-color="#FFE000"/>
</linearGradient>
</defs>
</svg>
