<svg width="414" height="471" viewBox="0 0 414 471" fill="none" xmlns="http://www.w3.org/2000/svg">
<rect width="445" height="471" rx="8" fill="#141420"/>
<path d="M0 8C0 3.58173 3.58172 0 8 0H437C441.418 0 445 3.58172 445 8V200H0V8Z" fill="url(#paint0_linear_905_5)"/>
<mask id="mask0_905_5" style="mask-type:alpha" maskUnits="userSpaceOnUse" x="0" y="0" width="445" height="200">
<path d="M0 8C0 3.58173 3.58172 0 8 0H437C441.418 0 445 3.58172 445 8V200H0V8Z" fill="#C4C4C4"/>
</mask>
<g mask="url(#mask0_905_5)">
<g opacity="0.25">
<circle cx="208" r="129.5" stroke="white"/>
<path d="M270.843 -62.8433C296.164 -37.5215 312.016 -7.55555 317.194 20.4044C322.372 48.3669 316.87 74.2695 299.569 91.5712C282.267 108.873 256.365 114.375 228.402 109.197C200.442 104.019 170.476 88.1667 145.154 62.845C119.832 37.5232 103.98 7.55721 98.8025 -20.4027C93.6243 -48.3653 99.1264 -74.2679 116.428 -91.5695C133.73 -108.871 159.632 -114.373 187.595 -109.195C215.555 -104.017 245.521 -88.1651 270.843 -62.8433Z" stroke="white"/>
<path d="M240.437 32.4369C215.082 57.7915 188.477 77.064 165.972 87.7347C154.718 93.0711 144.515 96.2439 136.021 96.9657C127.525 97.6877 120.813 95.9536 116.43 91.5709C112.048 87.1882 110.313 80.4759 111.035 71.9796C111.757 63.4865 114.93 53.2832 120.266 42.0288C130.937 19.5242 150.21 -7.08121 175.564 -32.4358C200.919 -57.7903 227.524 -77.0628 250.029 -87.7336C261.283 -93.07 271.487 -96.2428 279.98 -96.9646C288.476 -97.6866 295.188 -95.9525 299.571 -91.5698C303.954 -87.187 305.688 -80.4747 304.966 -71.9785C304.244 -63.4854 301.071 -53.2821 295.735 -42.0277C285.064 -19.523 265.791 7.08234 240.437 32.4369Z" stroke="white"/>
</g>
<g opacity="0.25">
<circle cx="532" cy="18" r="129.5" stroke="white"/>
<path d="M594.843 -44.8433C620.164 -19.5215 636.016 10.4445 641.194 38.4044C646.372 66.3669 640.87 92.2695 623.569 109.571C606.267 126.873 580.365 132.375 552.402 127.197C524.442 122.019 494.476 106.167 469.154 80.845C443.832 55.5232 427.98 25.5572 422.803 -2.40272C417.624 -30.3653 423.126 -56.2679 440.428 -73.5695C457.73 -90.8711 483.632 -96.3733 511.595 -91.195C539.555 -86.0173 569.521 -70.1651 594.843 -44.8433Z" stroke="white"/>
</g>
</g>
<defs>
<linearGradient id="paint0_linear_905_5" x1="222.5" y1="0" x2="222.5" y2="200" gradientUnits="userSpaceOnUse">
<stop stop-color="#3698F3" stop-opacity="0.75"/>
<stop offset="1" stop-color="#4C1DB1" stop-opacity="0"/>
</linearGradient>
</defs>
</svg>
