<svg width="445" height="471" viewBox="0 0 445 471" fill="none" xmlns="http://www.w3.org/2000/svg">
<rect width="445" height="471" rx="8" fill="#141420"/>
<path d="M0 8C0 3.58173 3.58172 0 8 0H437C441.418 0 445 3.58172 445 8V200H0V8Z" fill="url(#paint0_linear_905_4)"/>
<mask id="mask0_905_4" style="mask-type:alpha" maskUnits="userSpaceOnUse" x="0" y="0" width="445" height="200">
<path d="M0 8C0 3.58173 3.58172 0 8 0H437C441.418 0 445 3.58172 445 8V200H0V8Z" fill="#C4C4C4"/>
</mask>
<g mask="url(#mask0_905_4)">
<g opacity="0.25">
<circle cx="40" cy="-30" r="129.5" stroke="white"/>
<path d="M102.843 -92.8433C128.164 -67.5215 144.016 -37.5555 149.194 -9.59563C154.372 18.3669 148.87 44.2695 131.569 61.5712C114.267 78.8728 88.3645 84.3749 60.4019 79.1967C32.442 74.0189 2.47606 58.1667 -22.8457 32.845C-48.1675 7.52316 -64.0197 -22.4428 -69.1975 -50.4027C-74.3757 -78.3653 -68.8736 -104.268 -51.5719 -121.569C-34.2703 -138.871 -8.36773 -144.373 19.5948 -139.195C47.5548 -134.017 77.5207 -118.165 102.843 -92.8433Z" stroke="white"/>
<path d="M72.4369 2.4369C47.0823 27.7915 20.477 47.064 -2.02771 57.7347C-13.2821 63.0711 -23.4854 66.2439 -31.9785 66.9657C-40.4747 67.6877 -47.187 65.9536 -51.5698 61.5709C-55.9525 57.1882 -57.6866 50.4759 -56.9646 41.9796C-56.2428 33.4865 -53.07 23.2832 -47.7336 12.0288C-37.0628 -10.4758 -17.7903 -37.0812 7.56422 -62.4358C32.9188 -87.7903 59.5242 -107.063 82.0288 -117.734C93.2832 -123.07 103.487 -126.243 111.98 -126.965C120.476 -127.687 127.188 -125.952 131.571 -121.57C135.954 -117.187 137.688 -110.475 136.966 -101.979C136.244 -93.4854 133.071 -83.2821 127.735 -72.0277C117.064 -49.523 97.7915 -22.9177 72.4369 2.4369Z" stroke="white"/>
</g>
<g opacity="0.25">
<circle cx="532" cy="18" r="129.5" stroke="white"/>
<path d="M594.843 -44.8433C620.164 -19.5215 636.016 10.4445 641.194 38.4044C646.372 66.3669 640.87 92.2695 623.569 109.571C606.267 126.873 580.365 132.375 552.402 127.197C524.442 122.019 494.476 106.167 469.154 80.845C443.832 55.5232 427.98 25.5572 422.803 -2.40272C417.624 -30.3653 423.126 -56.2679 440.428 -73.5695C457.73 -90.8711 483.632 -96.3733 511.595 -91.195C539.555 -86.0173 569.521 -70.1651 594.843 -44.8433Z" stroke="white"/>
<path d="M564.437 50.4369C539.082 75.7915 512.477 95.064 489.972 105.735C478.718 111.071 468.515 114.244 460.021 114.966C451.525 115.688 444.813 113.954 440.43 109.571C436.048 105.188 434.313 98.4759 435.035 89.9796C435.757 81.4865 438.93 71.2832 444.266 60.0288C454.937 37.5242 474.21 10.9188 499.564 -14.4358C524.919 -39.7903 551.524 -59.0628 574.029 -69.7336C585.283 -75.07 595.487 -78.2428 603.98 -78.9646C612.476 -79.6866 619.188 -77.9525 623.571 -73.5698C627.954 -69.187 629.688 -62.4747 628.966 -53.9785C628.244 -45.4854 625.071 -35.2821 619.735 -24.0277C609.064 -1.52304 589.791 25.0823 564.437 50.4369Z" stroke="white"/>
</g>
</g>
<defs>
<linearGradient id="paint0_linear_905_4" x1="222.5" y1="0" x2="222.5" y2="200" gradientUnits="userSpaceOnUse">
<stop stop-color="#6736F3" stop-opacity="0.75"/>
<stop offset="1" stop-color="#4C1DB1" stop-opacity="0"/>
</linearGradient>
</defs>
</svg>
