<svg width="449" height="471" viewBox="0 0 449 471" fill="none" xmlns="http://www.w3.org/2000/svg">
<rect x="4" width="445" height="471" rx="8" fill="#141420"/>
<path d="M4 8C4 3.58173 7.58172 0 12 0H441C445.418 0 449 3.58172 449 8V200H4V8Z" fill="url(#paint0_linear_904_3)"/>
<mask id="mask0_904_3" style="mask-type:alpha" maskUnits="userSpaceOnUse" x="4" y="0" width="445" height="200">
<path d="M4 8C4 3.58173 7.58172 0 12 0H441C445.418 0 449 3.58172 449 8V200H4V8Z" fill="#C4C4C4"/>
</mask>
<g mask="url(#mask0_904_3)">
<g opacity="0.25">
<circle cx="44" cy="8" r="129.5" stroke="white"/>
<path d="M106.843 -54.8433C132.164 -29.5215 148.016 0.44445 153.194 28.4044C158.372 56.3669 152.87 82.2695 135.569 99.5712C118.267 116.873 92.3645 122.375 64.4019 117.197C36.442 112.019 6.47606 96.1667 -18.8457 70.845C-44.1675 45.5232 -60.0197 15.5572 -65.1975 -12.4027C-70.3757 -40.3653 -64.8736 -66.2679 -47.5719 -83.5695C-30.2703 -100.871 -4.36773 -106.373 23.5948 -101.195C51.5548 -96.0173 81.5207 -80.1651 106.843 -54.8433Z" stroke="white"/>
<path d="M76.4369 40.4369C51.0823 65.7915 24.477 85.064 1.97229 95.7347C-9.28213 101.071 -19.4854 104.244 -27.9785 104.966C-36.4747 105.688 -43.187 103.954 -47.5698 99.5709C-51.9525 95.1882 -53.6866 88.4759 -52.9646 79.9796C-52.2428 71.4865 -49.07 61.2832 -43.7336 50.0288C-33.0628 27.5242 -13.7903 0.918785 11.5642 -24.4358C36.9188 -49.7903 63.5242 -69.0628 86.0288 -79.7336C97.2832 -85.07 107.487 -88.2428 115.98 -88.9646C124.476 -89.6866 131.188 -87.9525 135.571 -83.5698C139.954 -79.187 141.688 -72.4747 140.966 -63.9785C140.244 -55.4854 137.071 -45.2821 131.735 -34.0277C121.064 -11.523 101.791 15.0823 76.4369 40.4369Z" stroke="white"/>
</g>
</g>
<defs>
<linearGradient id="paint0_linear_904_3" x1="226.5" y1="0" x2="226.5" y2="200" gradientUnits="userSpaceOnUse">
<stop stop-color="#4536F3" stop-opacity="0.75"/>
<stop offset="1" stop-color="#4C1DB1" stop-opacity="0"/>
</linearGradient>
</defs>
</svg>
