<svg width="286" height="122" viewBox="0 0 286 122" fill="none" xmlns="http://www.w3.org/2000/svg">
<rect y="61" width="114" height="1" fill="#4D4D4D"/>
<rect x="172" y="61" width="114" height="1" fill="#4D4D4D"/>
<g filter="url(#filter0_d_401_143)">
<circle cx="143" cy="61" r="26.5" stroke="white" stroke-width="5"/>
</g>
<path d="M152.92 55.62C152.818 55.3757 152.624 55.1815 152.38 55.08C152.26 55.0288 152.131 55.0016 152 55H147C146.735 55 146.48 55.1054 146.293 55.2929C146.105 55.4804 146 55.7348 146 56C146 56.2652 146.105 56.5196 146.293 56.7071C146.48 56.8946 146.735 57 147 57H149.59L144 62.59L140.71 59.29C140.617 59.1963 140.506 59.1219 140.385 59.0711C140.263 59.0203 140.132 58.9942 140 58.9942C139.868 58.9942 139.737 59.0203 139.615 59.0711C139.494 59.1219 139.383 59.1963 139.29 59.29L133.29 65.29C133.196 65.383 133.122 65.4936 133.071 65.6154C133.02 65.7373 132.994 65.868 132.994 66C132.994 66.132 133.02 66.2627 133.071 66.3846C133.122 66.5064 133.196 66.617 133.29 66.71C133.383 66.8037 133.494 66.8781 133.615 66.9289C133.737 66.9797 133.868 67.0058 134 67.0058C134.132 67.0058 134.263 66.9797 134.385 66.9289C134.506 66.8781 134.617 66.8037 134.71 66.71L140 61.41L143.29 64.71C143.383 64.8037 143.494 64.8781 143.615 64.9289C143.737 64.9797 143.868 65.0058 144 65.0058C144.132 65.0058 144.263 64.9797 144.385 64.9289C144.506 64.8781 144.617 64.8037 144.71 64.71L151 58.41V61C151 61.2652 151.105 61.5196 151.293 61.7071C151.48 61.8946 151.735 62 152 62C152.265 62 152.52 61.8946 152.707 61.7071C152.895 61.5196 153 61.2652 153 61V56C152.998 55.8693 152.971 55.7402 152.92 55.62Z" fill="white"/>
<defs>
<filter id="filter0_d_401_143" x="82" y="0" width="122" height="122" filterUnits="userSpaceOnUse" color-interpolation-filters="sRGB">
<feFlood flood-opacity="0" result="BackgroundImageFix"/>
<feColorMatrix in="SourceAlpha" type="matrix" values="0 0 0 0 0 0 0 0 0 0 0 0 0 0 0 0 0 0 127 0" result="hardAlpha"/>
<feMorphology radius="6" operator="dilate" in="SourceAlpha" result="effect1_dropShadow_401_143"/>
<feOffset/>
<feGaussianBlur stdDeviation="13"/>
<feColorMatrix type="matrix" values="0 0 0 0 0 0 0 0 0 0.52 0 0 0 0 1 0 0 0 0.5 0"/>
<feBlend mode="normal" in2="BackgroundImageFix" result="effect1_dropShadow_401_143"/>
<feBlend mode="normal" in="SourceGraphic" in2="effect1_dropShadow_401_143" result="shape"/>
</filter>
</defs>
</svg>
