<svg width="24" height="25" viewBox="0 0 24 25" fill="none" xmlns="http://www.w3.org/2000/svg">
<g clip-path="url(#clip0_189_1096)">
<path d="M12 0.387207C5.37256 0.387207 0 5.75977 0 12.3872C0 19.0146 5.37256 24.3872 12 24.3872C18.6274 24.3872 24 19.0146 24 12.3872C24 5.75977 18.6274 0.387207 12 0.387207ZM17.5622 8.54817C17.3816 10.4457 16.6002 15.0503 16.2025 17.1756C16.0343 18.0748 15.7031 18.3764 15.3825 18.4058C14.6857 18.47 14.1564 17.9453 13.4815 17.5029C12.4253 16.8106 11.8287 16.3796 10.8034 15.704C9.61868 14.9233 10.3867 14.4943 11.0619 13.7927C11.2386 13.6092 14.309 10.8164 14.3685 10.5631C14.3759 10.5314 14.383 10.4131 14.3126 10.3509C14.2423 10.2888 14.1389 10.3099 14.0641 10.3267C13.9582 10.3508 12.271 11.466 9.00247 13.6723C8.5236 14.0012 8.08982 14.1614 7.70114 14.153C7.27268 14.1438 6.4485 13.9108 5.83577 13.7116C5.08427 13.4673 4.48698 13.3382 4.539 12.9233C4.5661 12.7072 4.86368 12.4862 5.43174 12.2604C8.93 10.7363 11.2627 9.73142 12.4299 9.24587C15.7624 7.85972 16.4549 7.61895 16.9062 7.61092C17.0055 7.60927 17.2275 7.63385 17.3712 7.75051C17.4668 7.83362 17.5278 7.94959 17.542 8.07548C17.5664 8.2318 17.5731 8.39035 17.5622 8.54817Z" fill="#AEAED1"/>
</g>
<defs>
<clipPath id="clip0_189_1096">
<rect width="24" height="24.7742" fill="white"/>
</clipPath>
</defs>
</svg>
